<mxfile host="app.diagrams.net" modified="2024-01-30T18:16:35.294Z" agent="Mozilla/5.0 (Windows NT 10.0; Win64; x64) AppleWebKit/537.36 (KHTML, like Gecko) Chrome/121.0.0.0 Safari/537.36" etag="OnLC5JuxU9UpbgiagDkw" version="23.0.2" type="google">
  <diagram id="C5RBs43oDa-KdzZeNtuy" name="Page-1">
    <mxGraphModel grid="1" page="1" gridSize="10" guides="1" tooltips="1" connect="1" arrows="1" fold="1" pageScale="1" pageWidth="3300" pageHeight="4681" math="0" shadow="0">
      <root>
        <mxCell id="WIyWlLk6GJQsqaUBKTNV-0" />
        <mxCell id="WIyWlLk6GJQsqaUBKTNV-1" parent="WIyWlLk6GJQsqaUBKTNV-0" />
        <mxCell id="YfSJagei8CHhEesr05mw-6" style="edgeStyle=orthogonalEdgeStyle;rounded=0;orthogonalLoop=1;jettySize=auto;html=1;entryX=0.5;entryY=0;entryDx=0;entryDy=0;" edge="1" parent="WIyWlLk6GJQsqaUBKTNV-1" source="WIyWlLk6GJQsqaUBKTNV-3" target="YfSJagei8CHhEesr05mw-4">
          <mxGeometry relative="1" as="geometry" />
        </mxCell>
        <mxCell id="WIyWlLk6GJQsqaUBKTNV-3" value="Preparare le lasagne alla Bolognese" style="rounded=1;whiteSpace=wrap;html=1;fontSize=12;glass=0;strokeWidth=1;shadow=0;" vertex="1" parent="WIyWlLk6GJQsqaUBKTNV-1">
          <mxGeometry x="320" y="50" width="120" height="40" as="geometry" />
        </mxCell>
        <mxCell id="YfSJagei8CHhEesr05mw-16" style="edgeStyle=orthogonalEdgeStyle;rounded=0;orthogonalLoop=1;jettySize=auto;html=1;entryX=0.5;entryY=0;entryDx=0;entryDy=0;" edge="1" parent="WIyWlLk6GJQsqaUBKTNV-1" source="WIyWlLk6GJQsqaUBKTNV-6" target="YfSJagei8CHhEesr05mw-19">
          <mxGeometry relative="1" as="geometry">
            <mxPoint x="520" y="510" as="targetPoint" />
            <Array as="points">
              <mxPoint x="520" y="510" />
              <mxPoint x="520" y="680" />
              <mxPoint x="380" y="680" />
            </Array>
          </mxGeometry>
        </mxCell>
        <mxCell id="YfSJagei8CHhEesr05mw-17" style="edgeStyle=orthogonalEdgeStyle;rounded=0;orthogonalLoop=1;jettySize=auto;html=1;" edge="1" parent="WIyWlLk6GJQsqaUBKTNV-1" source="WIyWlLk6GJQsqaUBKTNV-6" target="YfSJagei8CHhEesr05mw-18">
          <mxGeometry relative="1" as="geometry">
            <mxPoint x="240" y="510" as="targetPoint" />
          </mxGeometry>
        </mxCell>
        <mxCell id="WIyWlLk6GJQsqaUBKTNV-6" value="ho tutti gli ingredienti?" style="rhombus;whiteSpace=wrap;html=1;shadow=0;fontFamily=Helvetica;fontSize=12;align=center;strokeWidth=1;spacing=6;spacingTop=-4;" vertex="1" parent="WIyWlLk6GJQsqaUBKTNV-1">
          <mxGeometry x="330" y="470" width="100" height="80" as="geometry" />
        </mxCell>
        <mxCell id="YfSJagei8CHhEesr05mw-7" style="edgeStyle=orthogonalEdgeStyle;rounded=0;orthogonalLoop=1;jettySize=auto;html=1;entryX=0.5;entryY=0;entryDx=0;entryDy=0;" edge="1" parent="WIyWlLk6GJQsqaUBKTNV-1" source="YfSJagei8CHhEesr05mw-4" target="YfSJagei8CHhEesr05mw-12">
          <mxGeometry relative="1" as="geometry">
            <mxPoint x="560" y="190" as="targetPoint" />
            <Array as="points">
              <mxPoint x="480" y="190" />
              <mxPoint x="480" y="300" />
              <mxPoint x="380" y="300" />
            </Array>
          </mxGeometry>
        </mxCell>
        <mxCell id="YfSJagei8CHhEesr05mw-8" style="edgeStyle=orthogonalEdgeStyle;rounded=0;orthogonalLoop=1;jettySize=auto;html=1;entryX=0.5;entryY=0;entryDx=0;entryDy=0;" edge="1" parent="WIyWlLk6GJQsqaUBKTNV-1" source="YfSJagei8CHhEesr05mw-4" target="YfSJagei8CHhEesr05mw-13">
          <mxGeometry relative="1" as="geometry">
            <mxPoint x="200" y="190" as="targetPoint" />
          </mxGeometry>
        </mxCell>
        <mxCell id="YfSJagei8CHhEesr05mw-4" value="So la ricetta?" style="rhombus;whiteSpace=wrap;html=1;" vertex="1" parent="WIyWlLk6GJQsqaUBKTNV-1">
          <mxGeometry x="320" y="150" width="120" height="80" as="geometry" />
        </mxCell>
        <mxCell id="YfSJagei8CHhEesr05mw-9" value="Si" style="text;html=1;align=center;verticalAlign=middle;resizable=0;points=[];autosize=1;strokeColor=none;fillColor=none;" vertex="1" parent="WIyWlLk6GJQsqaUBKTNV-1">
          <mxGeometry x="445" y="168" width="30" height="30" as="geometry" />
        </mxCell>
        <mxCell id="YfSJagei8CHhEesr05mw-10" value="No" style="text;html=1;align=center;verticalAlign=middle;resizable=0;points=[];autosize=1;strokeColor=none;fillColor=none;" vertex="1" parent="WIyWlLk6GJQsqaUBKTNV-1">
          <mxGeometry x="280" y="168" width="40" height="30" as="geometry" />
        </mxCell>
        <mxCell id="YfSJagei8CHhEesr05mw-15" style="edgeStyle=orthogonalEdgeStyle;rounded=0;orthogonalLoop=1;jettySize=auto;html=1;entryX=0.5;entryY=0;entryDx=0;entryDy=0;" edge="1" parent="WIyWlLk6GJQsqaUBKTNV-1" source="YfSJagei8CHhEesr05mw-12" target="WIyWlLk6GJQsqaUBKTNV-6">
          <mxGeometry relative="1" as="geometry" />
        </mxCell>
        <mxCell id="YfSJagei8CHhEesr05mw-12" value="Controllo se ho tutti gli ingredienti" style="rounded=1;whiteSpace=wrap;html=1;" vertex="1" parent="WIyWlLk6GJQsqaUBKTNV-1">
          <mxGeometry x="320" y="360" width="120" height="50" as="geometry" />
        </mxCell>
        <mxCell id="YfSJagei8CHhEesr05mw-14" style="edgeStyle=orthogonalEdgeStyle;rounded=0;orthogonalLoop=1;jettySize=auto;html=1;entryX=0.5;entryY=0;entryDx=0;entryDy=0;" edge="1" parent="WIyWlLk6GJQsqaUBKTNV-1" source="YfSJagei8CHhEesr05mw-13" target="YfSJagei8CHhEesr05mw-12">
          <mxGeometry relative="1" as="geometry">
            <Array as="points">
              <mxPoint x="240" y="300" />
              <mxPoint x="380" y="300" />
            </Array>
          </mxGeometry>
        </mxCell>
        <mxCell id="YfSJagei8CHhEesr05mw-13" value="Mi faccio dare la ricetta dalla nonna" style="rounded=1;whiteSpace=wrap;html=1;" vertex="1" parent="WIyWlLk6GJQsqaUBKTNV-1">
          <mxGeometry x="180" y="220" width="120" height="50" as="geometry" />
        </mxCell>
        <mxCell id="YfSJagei8CHhEesr05mw-22" style="edgeStyle=orthogonalEdgeStyle;rounded=0;orthogonalLoop=1;jettySize=auto;html=1;entryX=0.5;entryY=0;entryDx=0;entryDy=0;" edge="1" parent="WIyWlLk6GJQsqaUBKTNV-1" source="YfSJagei8CHhEesr05mw-18" target="YfSJagei8CHhEesr05mw-19">
          <mxGeometry relative="1" as="geometry">
            <mxPoint x="380" y="720" as="targetPoint" />
            <Array as="points">
              <mxPoint x="240" y="680" />
              <mxPoint x="381" y="680" />
            </Array>
          </mxGeometry>
        </mxCell>
        <mxCell id="YfSJagei8CHhEesr05mw-18" value="Esco a comprarli" style="rounded=1;whiteSpace=wrap;html=1;" vertex="1" parent="WIyWlLk6GJQsqaUBKTNV-1">
          <mxGeometry x="180" y="570" width="120" height="60" as="geometry" />
        </mxCell>
        <mxCell id="YfSJagei8CHhEesr05mw-23" style="edgeStyle=orthogonalEdgeStyle;rounded=0;orthogonalLoop=1;jettySize=auto;html=1;" edge="1" parent="WIyWlLk6GJQsqaUBKTNV-1" source="YfSJagei8CHhEesr05mw-19">
          <mxGeometry relative="1" as="geometry">
            <mxPoint x="380" y="840" as="targetPoint" />
          </mxGeometry>
        </mxCell>
        <mxCell id="YfSJagei8CHhEesr05mw-19" value="Procedo con la preparazione" style="rounded=1;whiteSpace=wrap;html=1;" vertex="1" parent="WIyWlLk6GJQsqaUBKTNV-1">
          <mxGeometry x="320" y="730" width="120" height="60" as="geometry" />
        </mxCell>
        <mxCell id="YfSJagei8CHhEesr05mw-20" value="Si" style="text;html=1;align=center;verticalAlign=middle;resizable=0;points=[];autosize=1;strokeColor=none;fillColor=none;" vertex="1" parent="WIyWlLk6GJQsqaUBKTNV-1">
          <mxGeometry x="435" y="488" width="30" height="30" as="geometry" />
        </mxCell>
        <mxCell id="YfSJagei8CHhEesr05mw-21" value="No" style="text;html=1;align=center;verticalAlign=middle;resizable=0;points=[];autosize=1;strokeColor=none;fillColor=none;" vertex="1" parent="WIyWlLk6GJQsqaUBKTNV-1">
          <mxGeometry x="300" y="488" width="40" height="30" as="geometry" />
        </mxCell>
        <mxCell id="YfSJagei8CHhEesr05mw-31" style="edgeStyle=orthogonalEdgeStyle;rounded=0;orthogonalLoop=1;jettySize=auto;html=1;entryX=1;entryY=0.5;entryDx=0;entryDy=0;" edge="1" parent="WIyWlLk6GJQsqaUBKTNV-1" source="YfSJagei8CHhEesr05mw-25" target="YfSJagei8CHhEesr05mw-29">
          <mxGeometry relative="1" as="geometry" />
        </mxCell>
        <mxCell id="YfSJagei8CHhEesr05mw-32" style="edgeStyle=orthogonalEdgeStyle;rounded=0;orthogonalLoop=1;jettySize=auto;html=1;entryX=0.5;entryY=0;entryDx=0;entryDy=0;" edge="1" parent="WIyWlLk6GJQsqaUBKTNV-1" source="YfSJagei8CHhEesr05mw-25">
          <mxGeometry relative="1" as="geometry">
            <mxPoint x="380" y="1480" as="targetPoint" />
            <Array as="points">
              <mxPoint x="470" y="1340" />
              <mxPoint x="470" y="1450" />
              <mxPoint x="380" y="1450" />
            </Array>
          </mxGeometry>
        </mxCell>
        <mxCell id="YfSJagei8CHhEesr05mw-25" value="il tutto Ã© tritato finemente?" style="rhombus;whiteSpace=wrap;html=1;" vertex="1" parent="WIyWlLk6GJQsqaUBKTNV-1">
          <mxGeometry x="320" y="1300" width="120" height="80" as="geometry" />
        </mxCell>
        <mxCell id="YfSJagei8CHhEesr05mw-37" style="edgeStyle=orthogonalEdgeStyle;rounded=0;orthogonalLoop=1;jettySize=auto;html=1;entryX=0.5;entryY=0;entryDx=0;entryDy=0;" edge="1" parent="WIyWlLk6GJQsqaUBKTNV-1" source="YfSJagei8CHhEesr05mw-27" target="YfSJagei8CHhEesr05mw-36">
          <mxGeometry relative="1" as="geometry" />
        </mxCell>
        <mxCell id="YfSJagei8CHhEesr05mw-27" value="Rosolo la pancetta da sola in una pentola" style="rounded=1;whiteSpace=wrap;html=1;" vertex="1" parent="WIyWlLk6GJQsqaUBKTNV-1">
          <mxGeometry x="320" y="840" width="120" height="60" as="geometry" />
        </mxCell>
        <mxCell id="YfSJagei8CHhEesr05mw-51" value="" style="edgeStyle=orthogonalEdgeStyle;rounded=0;orthogonalLoop=1;jettySize=auto;html=1;" edge="1" parent="WIyWlLk6GJQsqaUBKTNV-1" source="YfSJagei8CHhEesr05mw-28" target="YfSJagei8CHhEesr05mw-50">
          <mxGeometry relative="1" as="geometry" />
        </mxCell>
        <mxCell id="YfSJagei8CHhEesr05mw-28" value="Aggiungo alla pancetta e aspetto 5 minuti" style="rounded=1;whiteSpace=wrap;html=1;" vertex="1" parent="WIyWlLk6GJQsqaUBKTNV-1">
          <mxGeometry x="320" y="1480" width="120" height="60" as="geometry" />
        </mxCell>
        <mxCell id="YfSJagei8CHhEesr05mw-35" style="edgeStyle=orthogonalEdgeStyle;rounded=0;orthogonalLoop=1;jettySize=auto;html=1;entryX=0.5;entryY=1;entryDx=0;entryDy=0;" edge="1" parent="WIyWlLk6GJQsqaUBKTNV-1" source="YfSJagei8CHhEesr05mw-29" target="YfSJagei8CHhEesr05mw-25">
          <mxGeometry relative="1" as="geometry">
            <mxPoint x="200" y="1460" as="targetPoint" />
            <Array as="points">
              <mxPoint x="200" y="1420" />
              <mxPoint x="380" y="1420" />
            </Array>
          </mxGeometry>
        </mxCell>
        <mxCell id="YfSJagei8CHhEesr05mw-29" value="Continua a tritare" style="rounded=1;whiteSpace=wrap;html=1;" vertex="1" parent="WIyWlLk6GJQsqaUBKTNV-1">
          <mxGeometry x="140" y="1310" width="120" height="60" as="geometry" />
        </mxCell>
        <mxCell id="YfSJagei8CHhEesr05mw-33" value="Si" style="text;html=1;align=center;verticalAlign=middle;resizable=0;points=[];autosize=1;strokeColor=none;fillColor=none;" vertex="1" parent="WIyWlLk6GJQsqaUBKTNV-1">
          <mxGeometry x="435" y="1318" width="30" height="30" as="geometry" />
        </mxCell>
        <mxCell id="YfSJagei8CHhEesr05mw-34" value="No" style="text;html=1;align=center;verticalAlign=middle;resizable=0;points=[];autosize=1;strokeColor=none;fillColor=none;" vertex="1" parent="WIyWlLk6GJQsqaUBKTNV-1">
          <mxGeometry x="290" y="1318" width="40" height="30" as="geometry" />
        </mxCell>
        <mxCell id="YfSJagei8CHhEesr05mw-40" style="edgeStyle=orthogonalEdgeStyle;rounded=0;orthogonalLoop=1;jettySize=auto;html=1;" edge="1" parent="WIyWlLk6GJQsqaUBKTNV-1" source="YfSJagei8CHhEesr05mw-36" target="YfSJagei8CHhEesr05mw-39">
          <mxGeometry relative="1" as="geometry">
            <Array as="points">
              <mxPoint x="200" y="1010" />
            </Array>
          </mxGeometry>
        </mxCell>
        <mxCell id="YfSJagei8CHhEesr05mw-42" style="edgeStyle=orthogonalEdgeStyle;rounded=0;orthogonalLoop=1;jettySize=auto;html=1;entryX=0.5;entryY=0;entryDx=0;entryDy=0;" edge="1" parent="WIyWlLk6GJQsqaUBKTNV-1" source="YfSJagei8CHhEesr05mw-36" target="YfSJagei8CHhEesr05mw-38">
          <mxGeometry relative="1" as="geometry">
            <mxPoint x="430" y="1160" as="targetPoint" />
            <Array as="points">
              <mxPoint x="520" y="1010" />
              <mxPoint x="520" y="1160" />
              <mxPoint x="380" y="1160" />
            </Array>
          </mxGeometry>
        </mxCell>
        <mxCell id="YfSJagei8CHhEesr05mw-36" value="La pancetta ha rilasciato abbastanza grasso?" style="rhombus;whiteSpace=wrap;html=1;" vertex="1" parent="WIyWlLk6GJQsqaUBKTNV-1">
          <mxGeometry x="295" y="950" width="170" height="120" as="geometry" />
        </mxCell>
        <mxCell id="YfSJagei8CHhEesr05mw-45" style="edgeStyle=orthogonalEdgeStyle;rounded=0;orthogonalLoop=1;jettySize=auto;html=1;entryX=0.5;entryY=0;entryDx=0;entryDy=0;" edge="1" parent="WIyWlLk6GJQsqaUBKTNV-1" source="YfSJagei8CHhEesr05mw-38" target="YfSJagei8CHhEesr05mw-25">
          <mxGeometry relative="1" as="geometry" />
        </mxCell>
        <mxCell id="YfSJagei8CHhEesr05mw-38" value="Trita cipolla, carota e sedano" style="rounded=1;whiteSpace=wrap;html=1;" vertex="1" parent="WIyWlLk6GJQsqaUBKTNV-1">
          <mxGeometry x="320" y="1190" width="120" height="60" as="geometry" />
        </mxCell>
        <mxCell id="YfSJagei8CHhEesr05mw-41" style="edgeStyle=orthogonalEdgeStyle;rounded=0;orthogonalLoop=1;jettySize=auto;html=1;entryX=0.5;entryY=1;entryDx=0;entryDy=0;" edge="1" parent="WIyWlLk6GJQsqaUBKTNV-1" source="YfSJagei8CHhEesr05mw-39" target="YfSJagei8CHhEesr05mw-36">
          <mxGeometry relative="1" as="geometry">
            <Array as="points">
              <mxPoint x="200" y="1120" />
              <mxPoint x="380" y="1120" />
            </Array>
          </mxGeometry>
        </mxCell>
        <mxCell id="YfSJagei8CHhEesr05mw-39" value="Continua a rosolare" style="rounded=1;whiteSpace=wrap;html=1;" vertex="1" parent="WIyWlLk6GJQsqaUBKTNV-1">
          <mxGeometry x="140" y="1040" width="120" height="60" as="geometry" />
        </mxCell>
        <mxCell id="YfSJagei8CHhEesr05mw-43" value="Si" style="text;html=1;align=center;verticalAlign=middle;resizable=0;points=[];autosize=1;strokeColor=none;fillColor=none;" vertex="1" parent="WIyWlLk6GJQsqaUBKTNV-1">
          <mxGeometry x="455" y="988" width="30" height="30" as="geometry" />
        </mxCell>
        <mxCell id="YfSJagei8CHhEesr05mw-44" value="No" style="text;html=1;align=center;verticalAlign=middle;resizable=0;points=[];autosize=1;strokeColor=none;fillColor=none;" vertex="1" parent="WIyWlLk6GJQsqaUBKTNV-1">
          <mxGeometry x="260" y="988" width="40" height="30" as="geometry" />
        </mxCell>
        <mxCell id="YfSJagei8CHhEesr05mw-53" value="" style="edgeStyle=orthogonalEdgeStyle;rounded=0;orthogonalLoop=1;jettySize=auto;html=1;" edge="1" parent="WIyWlLk6GJQsqaUBKTNV-1" source="YfSJagei8CHhEesr05mw-50" target="YfSJagei8CHhEesr05mw-52">
          <mxGeometry relative="1" as="geometry" />
        </mxCell>
        <mxCell id="YfSJagei8CHhEesr05mw-57" value="" style="edgeStyle=orthogonalEdgeStyle;rounded=0;orthogonalLoop=1;jettySize=auto;html=1;" edge="1" parent="WIyWlLk6GJQsqaUBKTNV-1" source="YfSJagei8CHhEesr05mw-50" target="YfSJagei8CHhEesr05mw-56">
          <mxGeometry relative="1" as="geometry">
            <Array as="points">
              <mxPoint x="520" y="1660" />
              <mxPoint x="520" y="1780" />
              <mxPoint x="380" y="1780" />
            </Array>
          </mxGeometry>
        </mxCell>
        <mxCell id="YfSJagei8CHhEesr05mw-50" value="Sono passati 5&lt;br&gt;minuti?" style="rhombus;whiteSpace=wrap;html=1;rounded=1;arcSize=0;" vertex="1" parent="WIyWlLk6GJQsqaUBKTNV-1">
          <mxGeometry x="302.5" y="1610" width="155" height="100" as="geometry" />
        </mxCell>
        <mxCell id="YfSJagei8CHhEesr05mw-54" style="edgeStyle=orthogonalEdgeStyle;rounded=0;orthogonalLoop=1;jettySize=auto;html=1;entryX=0.5;entryY=1;entryDx=0;entryDy=0;" edge="1" parent="WIyWlLk6GJQsqaUBKTNV-1" source="YfSJagei8CHhEesr05mw-52" target="YfSJagei8CHhEesr05mw-50">
          <mxGeometry relative="1" as="geometry" />
        </mxCell>
        <mxCell id="YfSJagei8CHhEesr05mw-52" value="Aspetta" style="whiteSpace=wrap;html=1;rounded=1;arcSize=20;" vertex="1" parent="WIyWlLk6GJQsqaUBKTNV-1">
          <mxGeometry x="140" y="1720" width="120" height="60" as="geometry" />
        </mxCell>
        <mxCell id="YfSJagei8CHhEesr05mw-55" value="No" style="text;html=1;align=center;verticalAlign=middle;resizable=0;points=[];autosize=1;strokeColor=none;fillColor=none;" vertex="1" parent="WIyWlLk6GJQsqaUBKTNV-1">
          <mxGeometry x="270" y="1640" width="40" height="30" as="geometry" />
        </mxCell>
        <mxCell id="YfSJagei8CHhEesr05mw-60" value="" style="edgeStyle=orthogonalEdgeStyle;rounded=0;orthogonalLoop=1;jettySize=auto;html=1;" edge="1" parent="WIyWlLk6GJQsqaUBKTNV-1" source="YfSJagei8CHhEesr05mw-56" target="YfSJagei8CHhEesr05mw-59">
          <mxGeometry relative="1" as="geometry" />
        </mxCell>
        <mxCell id="YfSJagei8CHhEesr05mw-56" value="Metti la carne trita in pentola" style="whiteSpace=wrap;html=1;rounded=1;arcSize=19;" vertex="1" parent="WIyWlLk6GJQsqaUBKTNV-1">
          <mxGeometry x="320" y="1810" width="120" height="60" as="geometry" />
        </mxCell>
        <mxCell id="YfSJagei8CHhEesr05mw-58" value="Si" style="text;html=1;align=center;verticalAlign=middle;resizable=0;points=[];autosize=1;strokeColor=none;fillColor=none;" vertex="1" parent="WIyWlLk6GJQsqaUBKTNV-1">
          <mxGeometry x="455" y="1640" width="30" height="30" as="geometry" />
        </mxCell>
        <mxCell id="YfSJagei8CHhEesr05mw-74" value="" style="edgeStyle=orthogonalEdgeStyle;rounded=0;orthogonalLoop=1;jettySize=auto;html=1;" edge="1" parent="WIyWlLk6GJQsqaUBKTNV-1" source="YfSJagei8CHhEesr05mw-59" target="YfSJagei8CHhEesr05mw-73">
          <mxGeometry relative="1" as="geometry" />
        </mxCell>
        <mxCell id="YfSJagei8CHhEesr05mw-78" value="" style="edgeStyle=orthogonalEdgeStyle;rounded=0;orthogonalLoop=1;jettySize=auto;html=1;" edge="1" parent="WIyWlLk6GJQsqaUBKTNV-1" source="YfSJagei8CHhEesr05mw-59" target="YfSJagei8CHhEesr05mw-77">
          <mxGeometry relative="1" as="geometry">
            <Array as="points">
              <mxPoint x="520" y="1960" />
              <mxPoint x="520" y="2080" />
              <mxPoint x="380" y="2080" />
            </Array>
          </mxGeometry>
        </mxCell>
        <mxCell id="YfSJagei8CHhEesr05mw-59" value="La carne Ã© distribuita in maniera uniforme?" style="rhombus;whiteSpace=wrap;html=1;rounded=1;arcSize=19;" vertex="1" parent="WIyWlLk6GJQsqaUBKTNV-1">
          <mxGeometry x="300" y="1910" width="160" height="100" as="geometry" />
        </mxCell>
        <mxCell id="YfSJagei8CHhEesr05mw-75" style="edgeStyle=orthogonalEdgeStyle;rounded=0;orthogonalLoop=1;jettySize=auto;html=1;entryX=0.5;entryY=1;entryDx=0;entryDy=0;" edge="1" parent="WIyWlLk6GJQsqaUBKTNV-1" source="YfSJagei8CHhEesr05mw-73" target="YfSJagei8CHhEesr05mw-59">
          <mxGeometry relative="1" as="geometry" />
        </mxCell>
        <mxCell id="YfSJagei8CHhEesr05mw-73" value="Mescola" style="whiteSpace=wrap;html=1;rounded=1;arcSize=19;" vertex="1" parent="WIyWlLk6GJQsqaUBKTNV-1">
          <mxGeometry x="130" y="2020" width="120" height="60" as="geometry" />
        </mxCell>
        <mxCell id="YfSJagei8CHhEesr05mw-76" value="No" style="text;html=1;align=center;verticalAlign=middle;resizable=0;points=[];autosize=1;strokeColor=none;fillColor=none;" vertex="1" parent="WIyWlLk6GJQsqaUBKTNV-1">
          <mxGeometry x="270" y="1938" width="40" height="30" as="geometry" />
        </mxCell>
        <mxCell id="YfSJagei8CHhEesr05mw-111" style="edgeStyle=orthogonalEdgeStyle;rounded=0;orthogonalLoop=1;jettySize=auto;html=1;entryX=0.5;entryY=0;entryDx=0;entryDy=0;" edge="1" parent="WIyWlLk6GJQsqaUBKTNV-1" source="YfSJagei8CHhEesr05mw-77" target="YfSJagei8CHhEesr05mw-100">
          <mxGeometry relative="1" as="geometry" />
        </mxCell>
        <mxCell id="YfSJagei8CHhEesr05mw-77" value="Aspetta 5 minuti" style="whiteSpace=wrap;html=1;rounded=1;arcSize=19;" vertex="1" parent="WIyWlLk6GJQsqaUBKTNV-1">
          <mxGeometry x="320" y="2120" width="120" height="60" as="geometry" />
        </mxCell>
        <mxCell id="YfSJagei8CHhEesr05mw-79" value="Si" style="text;html=1;align=center;verticalAlign=middle;resizable=0;points=[];autosize=1;strokeColor=none;fillColor=none;" vertex="1" parent="WIyWlLk6GJQsqaUBKTNV-1">
          <mxGeometry x="455" y="1928" width="30" height="30" as="geometry" />
        </mxCell>
        <mxCell id="YfSJagei8CHhEesr05mw-99" value="" style="edgeStyle=orthogonalEdgeStyle;rounded=0;orthogonalLoop=1;jettySize=auto;html=1;" edge="1" parent="WIyWlLk6GJQsqaUBKTNV-1" source="YfSJagei8CHhEesr05mw-100" target="YfSJagei8CHhEesr05mw-102">
          <mxGeometry relative="1" as="geometry" />
        </mxCell>
        <mxCell id="YfSJagei8CHhEesr05mw-113" value="" style="edgeStyle=orthogonalEdgeStyle;rounded=0;orthogonalLoop=1;jettySize=auto;html=1;" edge="1" parent="WIyWlLk6GJQsqaUBKTNV-1" source="YfSJagei8CHhEesr05mw-100" target="YfSJagei8CHhEesr05mw-112">
          <mxGeometry relative="1" as="geometry">
            <Array as="points">
              <mxPoint x="520" y="2290" />
              <mxPoint x="520" y="2400" />
              <mxPoint x="380" y="2400" />
            </Array>
          </mxGeometry>
        </mxCell>
        <mxCell id="YfSJagei8CHhEesr05mw-100" value="Sono passati 5&lt;br&gt;minuti?" style="rhombus;whiteSpace=wrap;html=1;rounded=1;arcSize=0;" vertex="1" parent="WIyWlLk6GJQsqaUBKTNV-1">
          <mxGeometry x="302.5" y="2240" width="155" height="100" as="geometry" />
        </mxCell>
        <mxCell id="YfSJagei8CHhEesr05mw-101" style="edgeStyle=orthogonalEdgeStyle;rounded=0;orthogonalLoop=1;jettySize=auto;html=1;entryX=0.5;entryY=1;entryDx=0;entryDy=0;" edge="1" parent="WIyWlLk6GJQsqaUBKTNV-1" source="YfSJagei8CHhEesr05mw-102" target="YfSJagei8CHhEesr05mw-100">
          <mxGeometry relative="1" as="geometry" />
        </mxCell>
        <mxCell id="YfSJagei8CHhEesr05mw-102" value="Aspetta" style="whiteSpace=wrap;html=1;rounded=1;arcSize=20;" vertex="1" parent="WIyWlLk6GJQsqaUBKTNV-1">
          <mxGeometry x="140" y="2350" width="120" height="60" as="geometry" />
        </mxCell>
        <mxCell id="YfSJagei8CHhEesr05mw-103" value="No" style="text;html=1;align=center;verticalAlign=middle;resizable=0;points=[];autosize=1;strokeColor=none;fillColor=none;" vertex="1" parent="WIyWlLk6GJQsqaUBKTNV-1">
          <mxGeometry x="270" y="2270" width="40" height="30" as="geometry" />
        </mxCell>
        <mxCell id="YfSJagei8CHhEesr05mw-104" value="Si" style="text;html=1;align=center;verticalAlign=middle;resizable=0;points=[];autosize=1;strokeColor=none;fillColor=none;" vertex="1" parent="WIyWlLk6GJQsqaUBKTNV-1">
          <mxGeometry x="455" y="2270" width="30" height="30" as="geometry" />
        </mxCell>
        <mxCell id="YfSJagei8CHhEesr05mw-132" style="edgeStyle=orthogonalEdgeStyle;rounded=0;orthogonalLoop=1;jettySize=auto;html=1;" edge="1" parent="WIyWlLk6GJQsqaUBKTNV-1" source="YfSJagei8CHhEesr05mw-112" target="YfSJagei8CHhEesr05mw-115">
          <mxGeometry relative="1" as="geometry" />
        </mxCell>
        <mxCell id="YfSJagei8CHhEesr05mw-112" value="Aggiungi il vino e lascialo cuocere per altri 5 minuti" style="whiteSpace=wrap;html=1;rounded=1;arcSize=16;" vertex="1" parent="WIyWlLk6GJQsqaUBKTNV-1">
          <mxGeometry x="320" y="2430" width="120" height="60" as="geometry" />
        </mxCell>
        <mxCell id="YfSJagei8CHhEesr05mw-114" value="" style="edgeStyle=orthogonalEdgeStyle;rounded=0;orthogonalLoop=1;jettySize=auto;html=1;" edge="1" parent="WIyWlLk6GJQsqaUBKTNV-1" source="YfSJagei8CHhEesr05mw-115" target="YfSJagei8CHhEesr05mw-117">
          <mxGeometry relative="1" as="geometry" />
        </mxCell>
        <mxCell id="YfSJagei8CHhEesr05mw-135" value="" style="edgeStyle=orthogonalEdgeStyle;rounded=0;orthogonalLoop=1;jettySize=auto;html=1;" edge="1" parent="WIyWlLk6GJQsqaUBKTNV-1" source="YfSJagei8CHhEesr05mw-115" target="YfSJagei8CHhEesr05mw-134">
          <mxGeometry relative="1" as="geometry">
            <Array as="points">
              <mxPoint x="520" y="2570" />
              <mxPoint x="520" y="2680" />
              <mxPoint x="381" y="2680" />
            </Array>
          </mxGeometry>
        </mxCell>
        <mxCell id="YfSJagei8CHhEesr05mw-115" value="Sono passati 5&lt;br&gt;minuti?" style="rhombus;whiteSpace=wrap;html=1;rounded=1;arcSize=0;" vertex="1" parent="WIyWlLk6GJQsqaUBKTNV-1">
          <mxGeometry x="302.5" y="2520" width="157.5" height="100" as="geometry" />
        </mxCell>
        <mxCell id="YfSJagei8CHhEesr05mw-116" style="edgeStyle=orthogonalEdgeStyle;rounded=0;orthogonalLoop=1;jettySize=auto;html=1;entryX=0.5;entryY=1;entryDx=0;entryDy=0;" edge="1" parent="WIyWlLk6GJQsqaUBKTNV-1" source="YfSJagei8CHhEesr05mw-117" target="YfSJagei8CHhEesr05mw-115">
          <mxGeometry relative="1" as="geometry" />
        </mxCell>
        <mxCell id="YfSJagei8CHhEesr05mw-117" value="Aspetta" style="whiteSpace=wrap;html=1;rounded=1;arcSize=20;" vertex="1" parent="WIyWlLk6GJQsqaUBKTNV-1">
          <mxGeometry x="140" y="2630" width="120" height="60" as="geometry" />
        </mxCell>
        <mxCell id="YfSJagei8CHhEesr05mw-118" value="No" style="text;html=1;align=center;verticalAlign=middle;resizable=0;points=[];autosize=1;strokeColor=none;fillColor=none;" vertex="1" parent="WIyWlLk6GJQsqaUBKTNV-1">
          <mxGeometry x="270" y="2550" width="40" height="30" as="geometry" />
        </mxCell>
        <mxCell id="YfSJagei8CHhEesr05mw-119" value="Si" style="text;html=1;align=center;verticalAlign=middle;resizable=0;points=[];autosize=1;strokeColor=none;fillColor=none;" vertex="1" parent="WIyWlLk6GJQsqaUBKTNV-1">
          <mxGeometry x="455" y="2540" width="30" height="30" as="geometry" />
        </mxCell>
        <mxCell id="YfSJagei8CHhEesr05mw-137" value="" style="edgeStyle=orthogonalEdgeStyle;rounded=0;orthogonalLoop=1;jettySize=auto;html=1;" edge="1" parent="WIyWlLk6GJQsqaUBKTNV-1" source="YfSJagei8CHhEesr05mw-134" target="YfSJagei8CHhEesr05mw-136">
          <mxGeometry relative="1" as="geometry" />
        </mxCell>
        <mxCell id="YfSJagei8CHhEesr05mw-134" value="Aggiungi la passata di pomodoro e mescola" style="whiteSpace=wrap;html=1;rounded=1;arcSize=17;" vertex="1" parent="WIyWlLk6GJQsqaUBKTNV-1">
          <mxGeometry x="321.25" y="2710" width="120" height="60" as="geometry" />
        </mxCell>
        <mxCell id="YfSJagei8CHhEesr05mw-139" value="" style="edgeStyle=orthogonalEdgeStyle;rounded=0;orthogonalLoop=1;jettySize=auto;html=1;" edge="1" parent="WIyWlLk6GJQsqaUBKTNV-1" source="YfSJagei8CHhEesr05mw-136" target="YfSJagei8CHhEesr05mw-138">
          <mxGeometry relative="1" as="geometry" />
        </mxCell>
        <mxCell id="YfSJagei8CHhEesr05mw-136" value="Fai cuocere a fiamma bassa" style="whiteSpace=wrap;html=1;rounded=1;arcSize=17;" vertex="1" parent="WIyWlLk6GJQsqaUBKTNV-1">
          <mxGeometry x="321.25" y="2810" width="120" height="60" as="geometry" />
        </mxCell>
        <mxCell id="YfSJagei8CHhEesr05mw-141" value="" style="edgeStyle=orthogonalEdgeStyle;rounded=0;orthogonalLoop=1;jettySize=auto;html=1;" edge="1" parent="WIyWlLk6GJQsqaUBKTNV-1" source="YfSJagei8CHhEesr05mw-138" target="YfSJagei8CHhEesr05mw-140">
          <mxGeometry relative="1" as="geometry" />
        </mxCell>
        <mxCell id="YfSJagei8CHhEesr05mw-145" value="" style="edgeStyle=orthogonalEdgeStyle;rounded=0;orthogonalLoop=1;jettySize=auto;html=1;" edge="1" parent="WIyWlLk6GJQsqaUBKTNV-1" source="YfSJagei8CHhEesr05mw-138" target="YfSJagei8CHhEesr05mw-144">
          <mxGeometry relative="1" as="geometry">
            <Array as="points">
              <mxPoint x="520" y="2940" />
              <mxPoint x="520" y="3040" />
              <mxPoint x="382" y="3040" />
            </Array>
          </mxGeometry>
        </mxCell>
        <mxCell id="YfSJagei8CHhEesr05mw-138" value="La fiamma Ã© bassa?" style="rhombus;whiteSpace=wrap;html=1;rounded=1;arcSize=17;" vertex="1" parent="WIyWlLk6GJQsqaUBKTNV-1">
          <mxGeometry x="302.5" y="2900" width="158.75" height="80" as="geometry" />
        </mxCell>
        <mxCell id="YfSJagei8CHhEesr05mw-143" style="edgeStyle=orthogonalEdgeStyle;rounded=0;orthogonalLoop=1;jettySize=auto;html=1;entryX=0.5;entryY=1;entryDx=0;entryDy=0;" edge="1" parent="WIyWlLk6GJQsqaUBKTNV-1" source="YfSJagei8CHhEesr05mw-140" target="YfSJagei8CHhEesr05mw-138">
          <mxGeometry relative="1" as="geometry" />
        </mxCell>
        <mxCell id="YfSJagei8CHhEesr05mw-140" value="Abbassa la fiamma dalle manopole dei fornelli" style="whiteSpace=wrap;html=1;rounded=1;arcSize=17;" vertex="1" parent="WIyWlLk6GJQsqaUBKTNV-1">
          <mxGeometry x="140.005" y="2990" width="120" height="60" as="geometry" />
        </mxCell>
        <mxCell id="YfSJagei8CHhEesr05mw-142" value="No" style="text;html=1;align=center;verticalAlign=middle;resizable=0;points=[];autosize=1;strokeColor=none;fillColor=none;" vertex="1" parent="WIyWlLk6GJQsqaUBKTNV-1">
          <mxGeometry x="270" y="2918" width="40" height="30" as="geometry" />
        </mxCell>
        <mxCell id="YfSJagei8CHhEesr05mw-148" value="" style="edgeStyle=orthogonalEdgeStyle;rounded=0;orthogonalLoop=1;jettySize=auto;html=1;" edge="1" parent="WIyWlLk6GJQsqaUBKTNV-1" source="YfSJagei8CHhEesr05mw-144" target="YfSJagei8CHhEesr05mw-147">
          <mxGeometry relative="1" as="geometry" />
        </mxCell>
        <mxCell id="YfSJagei8CHhEesr05mw-144" value="Metti il coperchio e fai cuocere per un&#39;ora e mezza" style="whiteSpace=wrap;html=1;rounded=1;arcSize=17;" vertex="1" parent="WIyWlLk6GJQsqaUBKTNV-1">
          <mxGeometry x="321.875" y="3070" width="120" height="60" as="geometry" />
        </mxCell>
        <mxCell id="YfSJagei8CHhEesr05mw-146" value="Si" style="text;html=1;align=center;verticalAlign=middle;resizable=0;points=[];autosize=1;strokeColor=none;fillColor=none;" vertex="1" parent="WIyWlLk6GJQsqaUBKTNV-1">
          <mxGeometry x="455" y="2918" width="30" height="30" as="geometry" />
        </mxCell>
        <mxCell id="YfSJagei8CHhEesr05mw-150" value="" style="edgeStyle=orthogonalEdgeStyle;rounded=0;orthogonalLoop=1;jettySize=auto;html=1;" edge="1" parent="WIyWlLk6GJQsqaUBKTNV-1" source="YfSJagei8CHhEesr05mw-147" target="YfSJagei8CHhEesr05mw-149">
          <mxGeometry relative="1" as="geometry" />
        </mxCell>
        <mxCell id="YfSJagei8CHhEesr05mw-154" value="" style="edgeStyle=orthogonalEdgeStyle;rounded=0;orthogonalLoop=1;jettySize=auto;html=1;" edge="1" parent="WIyWlLk6GJQsqaUBKTNV-1" source="YfSJagei8CHhEesr05mw-147" target="YfSJagei8CHhEesr05mw-153">
          <mxGeometry relative="1" as="geometry">
            <Array as="points">
              <mxPoint x="520" y="3195" />
              <mxPoint x="520" y="3295" />
              <mxPoint x="381" y="3295" />
            </Array>
          </mxGeometry>
        </mxCell>
        <mxCell id="YfSJagei8CHhEesr05mw-147" value="Ã passata un&#39;ora&lt;br&gt;e mezza?" style="rhombus;whiteSpace=wrap;html=1;rounded=1;arcSize=17;" vertex="1" parent="WIyWlLk6GJQsqaUBKTNV-1">
          <mxGeometry x="303.13" y="3150" width="158.12" height="90" as="geometry" />
        </mxCell>
        <mxCell id="YfSJagei8CHhEesr05mw-152" style="edgeStyle=orthogonalEdgeStyle;rounded=0;orthogonalLoop=1;jettySize=auto;html=1;entryX=0.5;entryY=1;entryDx=0;entryDy=0;" edge="1" parent="WIyWlLk6GJQsqaUBKTNV-1" source="YfSJagei8CHhEesr05mw-149" target="YfSJagei8CHhEesr05mw-147">
          <mxGeometry relative="1" as="geometry" />
        </mxCell>
        <mxCell id="YfSJagei8CHhEesr05mw-149" value="Aspetta" style="whiteSpace=wrap;html=1;rounded=1;arcSize=17;" vertex="1" parent="WIyWlLk6GJQsqaUBKTNV-1">
          <mxGeometry x="140" y="3250" width="120" height="60" as="geometry" />
        </mxCell>
        <mxCell id="YfSJagei8CHhEesr05mw-151" value="No" style="text;html=1;align=center;verticalAlign=middle;resizable=0;points=[];autosize=1;strokeColor=none;fillColor=none;" vertex="1" parent="WIyWlLk6GJQsqaUBKTNV-1">
          <mxGeometry x="270" y="3168" width="40" height="30" as="geometry" />
        </mxCell>
        <mxCell id="YfSJagei8CHhEesr05mw-157" value="" style="edgeStyle=orthogonalEdgeStyle;rounded=0;orthogonalLoop=1;jettySize=auto;html=1;" edge="1" parent="WIyWlLk6GJQsqaUBKTNV-1" source="YfSJagei8CHhEesr05mw-153" target="YfSJagei8CHhEesr05mw-156">
          <mxGeometry relative="1" as="geometry" />
        </mxCell>
        <mxCell id="YfSJagei8CHhEesr05mw-153" value="Versa il latte nella pentola e aspetta finchÃ© la consistenza sia omogenea e cremosa" style="whiteSpace=wrap;html=1;rounded=1;arcSize=17;" vertex="1" parent="WIyWlLk6GJQsqaUBKTNV-1">
          <mxGeometry x="293.71000000000004" y="3320" width="175.08" height="60" as="geometry" />
        </mxCell>
        <mxCell id="YfSJagei8CHhEesr05mw-155" value="Si" style="text;html=1;align=center;verticalAlign=middle;resizable=0;points=[];autosize=1;strokeColor=none;fillColor=none;" vertex="1" parent="WIyWlLk6GJQsqaUBKTNV-1">
          <mxGeometry x="455" y="3168" width="30" height="30" as="geometry" />
        </mxCell>
        <mxCell id="YfSJagei8CHhEesr05mw-159" value="" style="edgeStyle=orthogonalEdgeStyle;rounded=0;orthogonalLoop=1;jettySize=auto;html=1;" edge="1" parent="WIyWlLk6GJQsqaUBKTNV-1" source="YfSJagei8CHhEesr05mw-156" target="YfSJagei8CHhEesr05mw-158">
          <mxGeometry relative="1" as="geometry" />
        </mxCell>
        <mxCell id="YfSJagei8CHhEesr05mw-162" value="" style="edgeStyle=orthogonalEdgeStyle;rounded=0;orthogonalLoop=1;jettySize=auto;html=1;" edge="1" parent="WIyWlLk6GJQsqaUBKTNV-1" source="YfSJagei8CHhEesr05mw-156" target="YfSJagei8CHhEesr05mw-161">
          <mxGeometry relative="1" as="geometry">
            <Array as="points">
              <mxPoint x="520" y="3455" />
              <mxPoint x="520" y="3560" />
              <mxPoint x="382" y="3560" />
            </Array>
          </mxGeometry>
        </mxCell>
        <mxCell id="YfSJagei8CHhEesr05mw-156" value="La consistenza Ã©&amp;nbsp;&lt;br&gt;quella desiderata?" style="rhombus;whiteSpace=wrap;html=1;rounded=1;arcSize=17;" vertex="1" parent="WIyWlLk6GJQsqaUBKTNV-1">
          <mxGeometry x="301.25" y="3420" width="160" height="70" as="geometry" />
        </mxCell>
        <mxCell id="YfSJagei8CHhEesr05mw-163" style="edgeStyle=orthogonalEdgeStyle;rounded=0;orthogonalLoop=1;jettySize=auto;html=1;entryX=0.5;entryY=1;entryDx=0;entryDy=0;" edge="1" parent="WIyWlLk6GJQsqaUBKTNV-1" source="YfSJagei8CHhEesr05mw-158" target="YfSJagei8CHhEesr05mw-156">
          <mxGeometry relative="1" as="geometry" />
        </mxCell>
        <mxCell id="YfSJagei8CHhEesr05mw-158" value="Aspetta" style="whiteSpace=wrap;html=1;rounded=1;arcSize=17;" vertex="1" parent="WIyWlLk6GJQsqaUBKTNV-1">
          <mxGeometry x="140.01" y="3500" width="120" height="60" as="geometry" />
        </mxCell>
        <mxCell id="YfSJagei8CHhEesr05mw-160" value="No" style="text;html=1;align=center;verticalAlign=middle;resizable=0;points=[];autosize=1;strokeColor=none;fillColor=none;" vertex="1" parent="WIyWlLk6GJQsqaUBKTNV-1">
          <mxGeometry x="280" y="3428" width="40" height="30" as="geometry" />
        </mxCell>
        <mxCell id="YfSJagei8CHhEesr05mw-166" value="" style="edgeStyle=orthogonalEdgeStyle;rounded=0;orthogonalLoop=1;jettySize=auto;html=1;" edge="1" parent="WIyWlLk6GJQsqaUBKTNV-1" source="YfSJagei8CHhEesr05mw-161" target="YfSJagei8CHhEesr05mw-165">
          <mxGeometry relative="1" as="geometry" />
        </mxCell>
        <mxCell id="YfSJagei8CHhEesr05mw-161" value="Spegni il fornello e prendi una teglia" style="whiteSpace=wrap;html=1;rounded=1;arcSize=17;" vertex="1" parent="WIyWlLk6GJQsqaUBKTNV-1">
          <mxGeometry x="322.19" y="3580" width="120" height="60" as="geometry" />
        </mxCell>
        <mxCell id="YfSJagei8CHhEesr05mw-164" value="Si" style="text;html=1;align=center;verticalAlign=middle;resizable=0;points=[];autosize=1;strokeColor=none;fillColor=none;" vertex="1" parent="WIyWlLk6GJQsqaUBKTNV-1">
          <mxGeometry x="445" y="3428" width="30" height="30" as="geometry" />
        </mxCell>
        <mxCell id="YfSJagei8CHhEesr05mw-168" value="" style="edgeStyle=orthogonalEdgeStyle;rounded=0;orthogonalLoop=1;jettySize=auto;html=1;" edge="1" parent="WIyWlLk6GJQsqaUBKTNV-1" source="YfSJagei8CHhEesr05mw-165" target="YfSJagei8CHhEesr05mw-167">
          <mxGeometry relative="1" as="geometry" />
        </mxCell>
        <mxCell id="YfSJagei8CHhEesr05mw-165" value="Prendiamo gli ingredienti: sfogli di pasta, ragÃ¹, besciamella e formaggio grattugiato" style="whiteSpace=wrap;html=1;rounded=1;arcSize=17;" vertex="1" parent="WIyWlLk6GJQsqaUBKTNV-1">
          <mxGeometry x="305.63" y="3680" width="153.12" height="80" as="geometry" />
        </mxCell>
        <mxCell id="YfSJagei8CHhEesr05mw-170" value="" style="edgeStyle=orthogonalEdgeStyle;rounded=0;orthogonalLoop=1;jettySize=auto;html=1;" edge="1" parent="WIyWlLk6GJQsqaUBKTNV-1" source="YfSJagei8CHhEesr05mw-167" target="YfSJagei8CHhEesr05mw-169">
          <mxGeometry relative="1" as="geometry" />
        </mxCell>
        <mxCell id="YfSJagei8CHhEesr05mw-167" value="Cospargiamo il fondo della teglia con un cucchiaio di ragÃ¹" style="whiteSpace=wrap;html=1;rounded=1;arcSize=17;" vertex="1" parent="WIyWlLk6GJQsqaUBKTNV-1">
          <mxGeometry x="322.19" y="3790" width="120" height="60" as="geometry" />
        </mxCell>
        <mxCell id="YfSJagei8CHhEesr05mw-172" value="" style="edgeStyle=orthogonalEdgeStyle;rounded=0;orthogonalLoop=1;jettySize=auto;html=1;" edge="1" parent="WIyWlLk6GJQsqaUBKTNV-1" source="YfSJagei8CHhEesr05mw-169" target="YfSJagei8CHhEesr05mw-171">
          <mxGeometry relative="1" as="geometry" />
        </mxCell>
        <mxCell id="YfSJagei8CHhEesr05mw-169" value="Iniziamo a fare gli strati: 5" style="whiteSpace=wrap;html=1;rounded=1;arcSize=17;" vertex="1" parent="WIyWlLk6GJQsqaUBKTNV-1">
          <mxGeometry x="321.25" y="3880" width="120" height="60" as="geometry" />
        </mxCell>
        <mxCell id="YfSJagei8CHhEesr05mw-174" value="" style="edgeStyle=orthogonalEdgeStyle;rounded=0;orthogonalLoop=1;jettySize=auto;html=1;" edge="1" parent="WIyWlLk6GJQsqaUBKTNV-1" source="YfSJagei8CHhEesr05mw-171" target="YfSJagei8CHhEesr05mw-173">
          <mxGeometry relative="1" as="geometry" />
        </mxCell>
        <mxCell id="YfSJagei8CHhEesr05mw-184" value="" style="edgeStyle=orthogonalEdgeStyle;rounded=0;orthogonalLoop=1;jettySize=auto;html=1;" edge="1" parent="WIyWlLk6GJQsqaUBKTNV-1" source="YfSJagei8CHhEesr05mw-171" target="YfSJagei8CHhEesr05mw-183">
          <mxGeometry relative="1" as="geometry">
            <Array as="points">
              <mxPoint x="520" y="4030" />
              <mxPoint x="520" y="4400" />
              <mxPoint x="382" y="4400" />
            </Array>
          </mxGeometry>
        </mxCell>
        <mxCell id="YfSJagei8CHhEesr05mw-171" value="Gli strati sono 5?" style="rhombus;whiteSpace=wrap;html=1;rounded=1;arcSize=17;" vertex="1" parent="WIyWlLk6GJQsqaUBKTNV-1">
          <mxGeometry x="302.5" y="3980" width="158.75" height="100" as="geometry" />
        </mxCell>
        <mxCell id="YfSJagei8CHhEesr05mw-176" value="" style="edgeStyle=orthogonalEdgeStyle;rounded=0;orthogonalLoop=1;jettySize=auto;html=1;" edge="1" parent="WIyWlLk6GJQsqaUBKTNV-1" source="YfSJagei8CHhEesr05mw-173" target="YfSJagei8CHhEesr05mw-175">
          <mxGeometry relative="1" as="geometry" />
        </mxCell>
        <mxCell id="YfSJagei8CHhEesr05mw-173" value="Metti uno strato di pasta" style="whiteSpace=wrap;html=1;rounded=1;arcSize=17;" vertex="1" parent="WIyWlLk6GJQsqaUBKTNV-1">
          <mxGeometry x="140.015" y="4090" width="120" height="60" as="geometry" />
        </mxCell>
        <mxCell id="YfSJagei8CHhEesr05mw-178" value="" style="edgeStyle=orthogonalEdgeStyle;rounded=0;orthogonalLoop=1;jettySize=auto;html=1;" edge="1" parent="WIyWlLk6GJQsqaUBKTNV-1" source="YfSJagei8CHhEesr05mw-175" target="YfSJagei8CHhEesr05mw-177">
          <mxGeometry relative="1" as="geometry" />
        </mxCell>
        <mxCell id="YfSJagei8CHhEesr05mw-175" value="Metti uno strato di ragÃ¹" style="whiteSpace=wrap;html=1;rounded=1;arcSize=17;" vertex="1" parent="WIyWlLk6GJQsqaUBKTNV-1">
          <mxGeometry x="140.005" y="4170" width="120" height="60" as="geometry" />
        </mxCell>
        <mxCell id="YfSJagei8CHhEesr05mw-180" value="" style="edgeStyle=orthogonalEdgeStyle;rounded=0;orthogonalLoop=1;jettySize=auto;html=1;" edge="1" parent="WIyWlLk6GJQsqaUBKTNV-1" source="YfSJagei8CHhEesr05mw-177" target="YfSJagei8CHhEesr05mw-179">
          <mxGeometry relative="1" as="geometry" />
        </mxCell>
        <mxCell id="YfSJagei8CHhEesr05mw-177" value="Metti qualche cucchiaio di besciamella" style="whiteSpace=wrap;html=1;rounded=1;arcSize=17;" vertex="1" parent="WIyWlLk6GJQsqaUBKTNV-1">
          <mxGeometry x="140.005" y="4250" width="120" height="60" as="geometry" />
        </mxCell>
        <mxCell id="YfSJagei8CHhEesr05mw-185" style="edgeStyle=orthogonalEdgeStyle;rounded=0;orthogonalLoop=1;jettySize=auto;html=1;entryX=0.5;entryY=1;entryDx=0;entryDy=0;" edge="1" parent="WIyWlLk6GJQsqaUBKTNV-1" source="YfSJagei8CHhEesr05mw-179" target="YfSJagei8CHhEesr05mw-171">
          <mxGeometry relative="1" as="geometry" />
        </mxCell>
        <mxCell id="YfSJagei8CHhEesr05mw-179" value="Spolvera con del formaggio" style="whiteSpace=wrap;html=1;rounded=1;arcSize=17;" vertex="1" parent="WIyWlLk6GJQsqaUBKTNV-1">
          <mxGeometry x="139.995" y="4330" width="120" height="60" as="geometry" />
        </mxCell>
        <mxCell id="YfSJagei8CHhEesr05mw-182" value="No" style="text;html=1;align=center;verticalAlign=middle;resizable=0;points=[];autosize=1;strokeColor=none;fillColor=none;" vertex="1" parent="WIyWlLk6GJQsqaUBKTNV-1">
          <mxGeometry x="270" y="4008" width="40" height="30" as="geometry" />
        </mxCell>
        <mxCell id="YfSJagei8CHhEesr05mw-189" value="" style="edgeStyle=orthogonalEdgeStyle;rounded=0;orthogonalLoop=1;jettySize=auto;html=1;" edge="1" parent="WIyWlLk6GJQsqaUBKTNV-1" source="YfSJagei8CHhEesr05mw-183">
          <mxGeometry relative="1" as="geometry">
            <mxPoint x="890" y="80" as="targetPoint" />
            <Array as="points">
              <mxPoint x="382" y="4520" />
              <mxPoint x="600" y="4520" />
              <mxPoint x="600" y="80" />
            </Array>
          </mxGeometry>
        </mxCell>
        <mxCell id="YfSJagei8CHhEesr05mw-183" value="Aggiungi altro formaggio" style="whiteSpace=wrap;html=1;rounded=1;arcSize=17;" vertex="1" parent="WIyWlLk6GJQsqaUBKTNV-1">
          <mxGeometry x="321.875" y="4420" width="120" height="60" as="geometry" />
        </mxCell>
        <mxCell id="YfSJagei8CHhEesr05mw-191" value="" style="edgeStyle=orthogonalEdgeStyle;rounded=0;orthogonalLoop=1;jettySize=auto;html=1;" edge="1" parent="WIyWlLk6GJQsqaUBKTNV-1" source="YfSJagei8CHhEesr05mw-188" target="YfSJagei8CHhEesr05mw-190">
          <mxGeometry relative="1" as="geometry" />
        </mxCell>
        <mxCell id="YfSJagei8CHhEesr05mw-188" value="Preriscalda il forno a 180Â°" style="whiteSpace=wrap;html=1;rounded=1;arcSize=17;" vertex="1" parent="WIyWlLk6GJQsqaUBKTNV-1">
          <mxGeometry x="890.005" y="50" width="120" height="60" as="geometry" />
        </mxCell>
        <mxCell id="YfSJagei8CHhEesr05mw-193" value="" style="edgeStyle=orthogonalEdgeStyle;rounded=0;orthogonalLoop=1;jettySize=auto;html=1;" edge="1" parent="WIyWlLk6GJQsqaUBKTNV-1" source="YfSJagei8CHhEesr05mw-190" target="YfSJagei8CHhEesr05mw-192">
          <mxGeometry relative="1" as="geometry" />
        </mxCell>
        <mxCell id="YfSJagei8CHhEesr05mw-196" value="" style="edgeStyle=orthogonalEdgeStyle;rounded=0;orthogonalLoop=1;jettySize=auto;html=1;" edge="1" parent="WIyWlLk6GJQsqaUBKTNV-1" source="YfSJagei8CHhEesr05mw-190" target="YfSJagei8CHhEesr05mw-195">
          <mxGeometry relative="1" as="geometry">
            <Array as="points">
              <mxPoint x="1080" y="170" />
              <mxPoint x="1080" y="280" />
              <mxPoint x="950" y="280" />
            </Array>
          </mxGeometry>
        </mxCell>
        <mxCell id="YfSJagei8CHhEesr05mw-190" value="Il forno Ã© a 180Â°?" style="rhombus;whiteSpace=wrap;html=1;rounded=1;arcSize=17;" vertex="1" parent="WIyWlLk6GJQsqaUBKTNV-1">
          <mxGeometry x="865" y="130" width="170" height="80" as="geometry" />
        </mxCell>
        <mxCell id="YfSJagei8CHhEesr05mw-198" style="edgeStyle=orthogonalEdgeStyle;rounded=0;orthogonalLoop=1;jettySize=auto;html=1;entryX=0.5;entryY=1;entryDx=0;entryDy=0;" edge="1" parent="WIyWlLk6GJQsqaUBKTNV-1" source="YfSJagei8CHhEesr05mw-192" target="YfSJagei8CHhEesr05mw-190">
          <mxGeometry relative="1" as="geometry" />
        </mxCell>
        <mxCell id="YfSJagei8CHhEesr05mw-192" value="Aspetta" style="whiteSpace=wrap;html=1;rounded=1;arcSize=17;" vertex="1" parent="WIyWlLk6GJQsqaUBKTNV-1">
          <mxGeometry x="740" y="220" width="120" height="60" as="geometry" />
        </mxCell>
        <mxCell id="YfSJagei8CHhEesr05mw-194" value="No" style="text;html=1;align=center;verticalAlign=middle;resizable=0;points=[];autosize=1;strokeColor=none;fillColor=none;" vertex="1" parent="WIyWlLk6GJQsqaUBKTNV-1">
          <mxGeometry x="840" y="148" width="40" height="30" as="geometry" />
        </mxCell>
        <mxCell id="YfSJagei8CHhEesr05mw-201" value="" style="edgeStyle=orthogonalEdgeStyle;rounded=0;orthogonalLoop=1;jettySize=auto;html=1;" edge="1" parent="WIyWlLk6GJQsqaUBKTNV-1" source="YfSJagei8CHhEesr05mw-195" target="YfSJagei8CHhEesr05mw-200">
          <mxGeometry relative="1" as="geometry" />
        </mxCell>
        <mxCell id="YfSJagei8CHhEesr05mw-195" value="Inforna la teglia e cuoci per 40 minuti" style="whiteSpace=wrap;html=1;rounded=1;arcSize=17;" vertex="1" parent="WIyWlLk6GJQsqaUBKTNV-1">
          <mxGeometry x="890.01" y="300" width="120" height="60" as="geometry" />
        </mxCell>
        <mxCell id="YfSJagei8CHhEesr05mw-199" value="Si" style="text;html=1;align=center;verticalAlign=middle;resizable=0;points=[];autosize=1;strokeColor=none;fillColor=none;" vertex="1" parent="WIyWlLk6GJQsqaUBKTNV-1">
          <mxGeometry x="1025" y="148" width="30" height="30" as="geometry" />
        </mxCell>
        <mxCell id="YfSJagei8CHhEesr05mw-203" value="" style="edgeStyle=orthogonalEdgeStyle;rounded=0;orthogonalLoop=1;jettySize=auto;html=1;exitX=0;exitY=0.5;exitDx=0;exitDy=0;" edge="1" parent="WIyWlLk6GJQsqaUBKTNV-1" source="YfSJagei8CHhEesr05mw-200" target="YfSJagei8CHhEesr05mw-202">
          <mxGeometry relative="1" as="geometry" />
        </mxCell>
        <mxCell id="YfSJagei8CHhEesr05mw-206" value="" style="edgeStyle=orthogonalEdgeStyle;rounded=0;orthogonalLoop=1;jettySize=auto;html=1;" edge="1" parent="WIyWlLk6GJQsqaUBKTNV-1" source="YfSJagei8CHhEesr05mw-200" target="YfSJagei8CHhEesr05mw-205">
          <mxGeometry relative="1" as="geometry">
            <Array as="points">
              <mxPoint x="1080" y="420" />
              <mxPoint x="1080" y="520" />
              <mxPoint x="950" y="520" />
            </Array>
          </mxGeometry>
        </mxCell>
        <mxCell id="YfSJagei8CHhEesr05mw-200" value="Sono passati 40 minuti?" style="rhombus;whiteSpace=wrap;html=1;rounded=1;arcSize=17;" vertex="1" parent="WIyWlLk6GJQsqaUBKTNV-1">
          <mxGeometry x="860" y="380" width="180" height="80" as="geometry" />
        </mxCell>
        <mxCell id="YfSJagei8CHhEesr05mw-207" style="edgeStyle=orthogonalEdgeStyle;rounded=0;orthogonalLoop=1;jettySize=auto;html=1;entryX=0.5;entryY=1;entryDx=0;entryDy=0;" edge="1" parent="WIyWlLk6GJQsqaUBKTNV-1" source="YfSJagei8CHhEesr05mw-202" target="YfSJagei8CHhEesr05mw-200">
          <mxGeometry relative="1" as="geometry">
            <Array as="points">
              <mxPoint x="950" y="490" />
            </Array>
          </mxGeometry>
        </mxCell>
        <mxCell id="YfSJagei8CHhEesr05mw-202" value="Aspetta" style="whiteSpace=wrap;html=1;rounded=1;arcSize=17;" vertex="1" parent="WIyWlLk6GJQsqaUBKTNV-1">
          <mxGeometry x="740" y="458" width="120" height="60" as="geometry" />
        </mxCell>
        <mxCell id="YfSJagei8CHhEesr05mw-204" value="No" style="text;html=1;align=center;verticalAlign=middle;resizable=0;points=[];autosize=1;strokeColor=none;fillColor=none;" vertex="1" parent="WIyWlLk6GJQsqaUBKTNV-1">
          <mxGeometry x="830" y="398" width="40" height="30" as="geometry" />
        </mxCell>
        <mxCell id="YfSJagei8CHhEesr05mw-211" value="" style="edgeStyle=orthogonalEdgeStyle;rounded=0;orthogonalLoop=1;jettySize=auto;html=1;" edge="1" parent="WIyWlLk6GJQsqaUBKTNV-1" source="YfSJagei8CHhEesr05mw-205" target="YfSJagei8CHhEesr05mw-210">
          <mxGeometry relative="1" as="geometry" />
        </mxCell>
        <mxCell id="YfSJagei8CHhEesr05mw-205" value="Esci la teglia dal forno e aspetta qualche minuto" style="whiteSpace=wrap;html=1;rounded=1;arcSize=17;" vertex="1" parent="WIyWlLk6GJQsqaUBKTNV-1">
          <mxGeometry x="890.01" y="550" width="120" height="60" as="geometry" />
        </mxCell>
        <mxCell id="YfSJagei8CHhEesr05mw-208" value="Si" style="text;html=1;align=center;verticalAlign=middle;resizable=0;points=[];autosize=1;strokeColor=none;fillColor=none;" vertex="1" parent="WIyWlLk6GJQsqaUBKTNV-1">
          <mxGeometry x="1035" y="390" width="30" height="30" as="geometry" />
        </mxCell>
        <mxCell id="YfSJagei8CHhEesr05mw-210" value="Dividi la lasagna in porzioni e servi" style="whiteSpace=wrap;html=1;rounded=1;arcSize=17;" vertex="1" parent="WIyWlLk6GJQsqaUBKTNV-1">
          <mxGeometry x="890.01" y="640" width="120" height="60" as="geometry" />
        </mxCell>
      </root>
    </mxGraphModel>
  </diagram>
</mxfile>
